<svg width="1200" height="175" viewBox="0 0 1200 175" fill="none" xmlns="http://www.w3.org/2000/svg">
<path d="M1787.5 507C1787.5 576.835 1754.79 643.404 1695.54 703.998C1636.29 764.593 1550.54 819.186 1444.53 865.044C1232.52 956.76 939.587 1013.5 616 1013.5C292.413 1013.5 -0.516663 956.76 -212.531 865.044C-318.538 819.186 -404.294 764.593 -463.541 703.998C-522.785 643.404 -555.5 576.835 -555.5 507C-555.5 437.165 -522.785 370.596 -463.541 310.002C-404.294 249.407 -318.538 194.814 -212.531 148.956C-0.516663 57.2398 292.413 0.5 616 0.5C939.587 0.5 1232.52 57.2398 1444.53 148.956C1550.54 194.814 1636.29 249.407 1695.54 310.002C1754.79 370.596 1787.5 437.165 1787.5 507Z" fill="url(#paint0_radial_40_3735)" stroke="#B48CDE"/>
<defs>
<radialGradient id="paint0_radial_40_3735" cx="0" cy="0" r="1" gradientUnits="userSpaceOnUse" gradientTransform="translate(616 507) rotate(90) scale(521 1204.36)">
<stop offset="0.822011"/>
<stop offset="1" stop-color="#9560EB"/>
</radialGradient>
</defs>
</svg>
